<svg width="20" height="20" viewBox="0 0 20 20" fill="none" xmlns="http://www.w3.org/2000/svg">
<path fill-rule="evenodd" clip-rule="evenodd" d="M15.8333 3.33329H15V1.66663H13.3333V3.33329H6.66667V1.66663H5V3.33329H4.16667C3.24167 3.33329 2.5 4.08329 2.5 4.99996V16.6666C2.5 17.5833 3.24167 18.3333 4.16667 18.3333H15.8333C16.75 18.3333 17.5 17.5833 17.5 16.6666V4.99996C17.5 4.08329 16.75 3.33329 15.8333 3.33329ZM15.8333 16.6666H4.16667V7.49996H15.8333V16.6666ZM5.41667 10.8333C5.41667 9.68329 6.35 8.74996 7.5 8.74996C8.65 8.74996 9.58333 9.68329 9.58333 10.8333C9.58333 11.9833 8.65 12.9166 7.5 12.9166C6.35 12.9166 5.41667 11.9833 5.41667 10.8333Z" fill="white"/>
</svg>
