<svg width="24" height="24" viewBox="0 0 24 24" fill="none" xmlns="http://www.w3.org/2000/svg">
<path d="M3.19421 13.1952C2.35557 11.7815 2.06187 10.1102 2.36826 8.49521C2.67466 6.88024 3.56007 5.43266 4.85823 4.42431C6.15639 3.41596 7.77801 2.91619 9.41858 3.01886C11.0591 3.12152 12.6058 3.81955 13.7681 4.98187C14.9305 6.1442 15.6285 7.69086 15.7312 9.33143C15.8338 10.972 15.3341 12.5936 14.3257 13.8918C13.3174 15.19 11.8698 16.0754 10.2549 16.3818C8.63989 16.6882 6.96862 16.3945 5.55486 15.5558L5.55488 15.5558L3.22356 16.2219C3.1271 16.2494 3.02504 16.2507 2.92793 16.2255C2.83082 16.2004 2.74221 16.1497 2.67128 16.0788C2.60035 16.0078 2.54967 15.9192 2.52451 15.8221C2.49935 15.725 2.50061 15.6229 2.52817 15.5265L3.19426 13.1952L3.19421 13.1952Z" stroke="#292929" stroke-width="2" stroke-linecap="round" stroke-linejoin="round"/>
<path d="M8.63049 16.4899C8.96232 17.4319 9.49892 18.2886 10.2017 18.9983C10.9044 19.708 11.7558 20.253 12.6945 20.594C13.6332 20.9351 14.6358 21.0637 15.6302 20.9706C16.6246 20.8776 17.586 20.5652 18.4451 20.0558L18.4451 20.0558L20.7764 20.7219C20.8729 20.7494 20.9749 20.7507 21.072 20.7255C21.1692 20.7004 21.2578 20.6497 21.3287 20.5788C21.3996 20.5078 21.4503 20.4192 21.4755 20.3221C21.5006 20.225 21.4994 20.1229 21.4718 20.0265L20.8057 17.6952L20.8058 17.6952C21.3976 16.6971 21.7222 15.5633 21.7483 14.4032C21.7743 13.2431 21.501 12.0959 20.9545 11.0722C20.4081 10.0485 19.6071 9.18294 18.6288 8.55897C17.6504 7.935 16.5278 7.57371 15.3691 7.50995" stroke="#292929" stroke-width="2" stroke-linecap="round" stroke-linejoin="round"/>
</svg>
