<svg width="195" height="205" viewBox="0 0 195 205" fill="none" xmlns="http://www.w3.org/2000/svg">
<g clip-path="url(#clip0_537_2458)">
<path d="M75.4326 204.047C117.093 204.047 150.865 198.081 150.865 190.721C150.865 183.361 117.093 177.395 75.4326 177.395C33.7723 177.395 0 183.361 0 190.721C0 198.081 33.7723 204.047 75.4326 204.047Z" fill="#3F3D56"/>
<path d="M121.279 147.442C161.994 147.442 195 114.436 195 73.721C195 33.006 161.994 0 121.279 0C80.5641 0 47.5581 33.006 47.5581 73.721C47.5581 114.436 80.5641 147.442 121.279 147.442Z" fill="#3F3D56"/>
<path opacity="0.05" d="M121.279 134.58C154.891 134.58 182.138 107.333 182.138 73.7211C182.138 40.1096 154.891 12.8621 121.279 12.8621C87.6677 12.8621 60.4202 40.1096 60.4202 73.7211C60.4202 107.333 87.6677 134.58 121.279 134.58Z" fill="black"/>
<path opacity="0.05" d="M121.279 123.6C148.827 123.6 171.158 101.268 171.158 73.7209C171.158 46.1733 148.827 23.8416 121.279 23.8416C93.7314 23.8416 71.3997 46.1733 71.3997 73.7209C71.3997 101.268 93.7314 123.6 121.279 123.6Z" fill="black"/>
<path opacity="0.05" d="M121.279 109.484C141.03 109.484 157.042 93.4721 157.042 73.721C157.042 53.9699 141.03 37.9585 121.279 37.9585C101.528 37.9585 85.5166 53.9699 85.5166 73.721C85.5166 93.4721 101.528 109.484 121.279 109.484Z" fill="black"/>
<path d="M48.211 80.3186C48.211 80.3186 42.415 96.6331 44.991 102.429C47.567 108.225 51.6456 113.806 51.6456 113.806C51.6456 113.806 50.143 81.3919 48.211 80.3186Z" fill="#D0CDE1"/>
<path opacity="0.1" d="M48.211 80.3186C48.211 80.3186 42.415 96.6331 44.991 102.429C47.567 108.225 51.6456 113.806 51.6456 113.806C51.6456 113.806 50.143 81.3919 48.211 80.3186Z" fill="black"/>
<path d="M52.2897 118.099C52.2897 118.099 51.8604 122.178 51.6457 122.393C51.431 122.607 51.8604 123.037 51.6457 123.681C51.431 124.325 51.2164 125.183 51.6457 125.398C52.075 125.613 49.2844 144.503 49.2844 144.503C49.2844 144.503 42.4151 153.519 45.2058 167.687L46.0644 182.07C46.0644 182.07 52.719 182.499 52.719 180.138C52.719 180.138 52.2897 177.347 52.2897 176.059C52.2897 174.771 53.363 174.771 52.719 174.127C52.075 173.483 52.075 173.054 52.075 173.054C52.075 173.054 53.1484 172.195 52.9337 171.98C52.719 171.766 54.8657 156.524 54.8657 156.524C54.8657 156.524 57.227 154.163 57.227 152.875V151.587C57.227 151.587 58.3003 148.797 58.3003 148.582C58.3003 148.367 64.0963 135.273 64.0963 135.273L66.4576 144.718L69.0336 158.242C69.0336 158.242 70.3215 170.478 72.8975 175.2C72.8975 175.2 77.4055 190.656 77.4055 190.227C77.4055 189.798 84.9187 188.724 84.7041 186.792C84.4894 184.86 80.1961 157.812 80.1961 157.812L81.2694 117.67L52.2897 118.099Z" fill="#2F2E41"/>
<path d="M46.4936 180.996C46.4936 180.996 40.6977 192.373 44.5616 192.803C48.4256 193.232 49.9283 193.232 51.6456 191.515C52.5844 190.576 54.4857 189.316 56.0164 188.367C56.9234 187.814 57.6561 187.016 58.1305 186.065C58.6049 185.115 58.8017 184.05 58.6985 182.992C58.5853 181.942 58.1929 181.077 57.2269 180.996C54.6509 180.781 51.6456 178.42 51.6456 178.42L46.4936 180.996Z" fill="#2F2E41"/>
<path d="M78.4787 189.368C78.4787 189.368 72.6828 200.745 76.5467 201.175C80.4107 201.604 81.9134 201.604 83.6307 199.887C84.5695 198.948 86.4708 197.688 88.0015 196.739C88.9085 196.186 89.6412 195.388 90.1156 194.438C90.59 193.487 90.7869 192.422 90.6836 191.364C90.5704 190.314 90.1779 189.449 89.212 189.368C86.636 189.154 83.6307 186.792 83.6307 186.792L78.4787 189.368Z" fill="#2F2E41"/>
<path d="M72.3528 61.7C77.3364 61.7 81.3765 57.6599 81.3765 52.6763C81.3765 47.6926 77.3364 43.6526 72.3528 43.6526C67.3691 43.6526 63.3291 47.6926 63.3291 52.6763C63.3291 57.6599 67.3691 61.7 72.3528 61.7Z" fill="#FFB8B8"/>
<path d="M66.5521 55.6411C66.5521 55.6411 60.1066 67.5008 59.591 67.5008C59.0753 67.5008 71.1929 71.3681 71.1929 71.3681C71.1929 71.3681 74.5445 60.0241 75.0601 58.9928L66.5521 55.6411Z" fill="#FFB8B8"/>
<path d="M76.4395 68.6194C76.4395 68.6194 63.5596 61.5355 62.2716 61.7501C60.9836 61.9648 47.2451 73.986 47.4598 78.9233C47.6744 83.8606 49.3917 92.0179 49.3917 92.0179C49.3917 92.0179 50.0357 114.772 51.3237 114.987C52.6117 115.202 51.1091 119.066 51.5384 119.066C51.9677 119.066 81.5914 119.066 81.8061 118.422C82.0208 117.778 76.4395 68.6194 76.4395 68.6194Z" fill="#D0CDE1"/>
<path d="M83.6307 119.602C83.6307 119.602 87.7093 132.053 84.2747 131.624C80.8401 131.194 79.3374 120.89 79.3374 120.89L83.6307 119.602Z" fill="#FFB8B8"/>
<path d="M72.6826 67.8679C72.6826 67.8679 64.74 69.5852 66.028 80.3184C67.316 91.0517 69.6773 101.785 69.6773 101.785L77.6199 119.173L78.4785 122.393L84.2745 120.89L79.9812 95.989C79.9812 95.989 78.4785 69.3706 76.5466 68.5119C75.3283 67.9925 74.0035 67.7717 72.6826 67.8679Z" fill="#D0CDE1"/>
<path opacity="0.1" d="M67.8528 101.463L77.7275 119.065L69.4079 100.517L67.8528 101.463Z" fill="black"/>
<path d="M81.3366 50.0192L81.3664 49.3297L82.7382 49.6711C82.7235 49.4497 82.6609 49.2342 82.5548 49.0393C82.4487 48.8445 82.3015 48.675 82.1235 48.5426L83.5847 48.4609C82.3586 46.7186 80.7921 45.2428 78.9798 44.1228C77.1674 43.0028 75.1469 42.2617 73.0402 41.9443C69.8796 41.4862 66.3604 42.1491 64.1931 44.4947C63.1419 45.6324 62.4814 47.0792 62.0115 48.5553C61.1461 51.2739 60.9698 54.5146 62.7743 56.7244C64.6083 58.9702 67.8118 59.4102 70.698 59.6881C71.7135 59.786 72.7778 59.8769 73.7189 59.4829C73.8236 58.4035 73.6854 57.3143 73.3145 56.2952C73.16 55.9798 73.0862 55.6309 73.0996 55.2799C73.2279 54.4212 74.3732 54.2049 75.2336 54.3209C76.094 54.4369 77.1286 54.6144 77.6939 53.9556C78.0833 53.5017 78.0604 52.8408 78.112 52.245C78.2524 50.623 81.3219 50.3593 81.3366 50.0192Z" fill="#2F2E41"/>
<path d="M136.684 192.555C142.49 192.555 147.198 187.847 147.198 182.041C147.198 176.234 142.49 171.527 136.684 171.527C130.877 171.527 126.169 176.234 126.169 182.041C126.169 187.847 130.877 192.555 136.684 192.555Z" fill="#6750A4"/>
<path d="M13.2038 188.887C19.0106 188.887 23.7179 184.18 23.7179 178.373C23.7179 172.566 19.0106 167.859 13.2038 167.859C7.39702 167.859 2.6897 172.566 2.6897 178.373C2.6897 184.18 7.39702 188.887 13.2038 188.887Z" fill="#6750A4"/>
<path d="M13.2037 172.016C17.39 172.016 20.7837 168.622 20.7837 164.436C20.7837 160.249 17.39 156.856 13.2037 156.856C9.01743 156.856 5.62378 160.249 5.62378 164.436C5.62378 168.622 9.01743 172.016 13.2037 172.016Z" fill="#6750A4"/>
<path d="M13.2038 158.078C16.1747 158.078 18.5831 155.67 18.5831 152.699C18.5831 149.728 16.1747 147.32 13.2038 147.32C10.2329 147.32 7.82446 149.728 7.82446 152.699C7.82446 155.67 10.2329 158.078 13.2038 158.078Z" fill="#6750A4"/>
</g>
<defs>
<clipPath id="clip0_537_2458">
<rect width="195" height="204.047" fill="white"/>
</clipPath>
</defs>
</svg>
