<svg width="230" height="176" viewBox="0 0 230 176" fill="none" xmlns="http://www.w3.org/2000/svg">
<ellipse cx="87.1412" cy="98.0314" rx="87.1412" ry="77.9684" fill="#F2F2F2"/>
<g clip-path="url(#clip0_731_2519)">
<path d="M85.4045 174.035C88.6917 171.258 90.6885 166.87 90.1648 162.598C89.6412 158.326 86.3979 154.399 82.1909 153.492C77.9839 152.585 73.1882 155.096 71.9104 159.206C71.2071 151.282 70.3968 143.027 66.1843 136.28C62.37 130.17 55.7636 125.799 48.6037 125.017C41.4439 124.235 33.9054 127.188 29.4401 132.84C24.9747 138.491 23.8814 146.706 27.0088 153.194C29.3127 157.974 33.5572 161.531 38.0044 164.425C52.3749 173.697 69.6104 177.467 86.5398 175.043" fill="#B3A7D1"/>
<path d="M36.5204 127.352C42.4282 132.164 47.848 137.546 52.7013 143.42C60.2968 152.581 66.4432 162.852 70.9262 173.875C71.2544 174.679 69.9486 175.03 69.624 174.234C66.7731 167.265 63.246 160.591 59.0932 154.31C52.6175 144.497 44.6838 135.729 35.5655 128.307C34.8913 127.758 35.8518 126.808 36.5204 127.352Z" fill="white"/>
<path opacity="0.5" d="M87.6749 174.035C84.3877 171.258 82.3909 166.87 82.9146 162.598C83.4382 158.326 86.6815 154.399 90.8885 153.492C95.0955 152.585 99.8912 155.096 101.169 159.206C101.872 151.282 102.683 143.027 106.895 136.28C110.709 130.17 117.316 125.799 124.476 125.017C131.636 124.235 139.174 127.188 143.639 132.84C148.105 138.491 149.198 146.706 146.071 153.194C143.767 157.974 139.522 161.531 135.075 164.425C120.705 173.697 103.469 177.467 86.5396 175.043" fill="#6750A4"/>
<path d="M136.559 127.352C130.651 132.164 125.232 137.546 120.378 143.42C112.783 152.581 106.637 162.852 102.153 173.875C101.825 174.679 103.131 175.03 103.456 174.234C110.791 156.319 122.501 140.528 137.514 128.307C138.188 127.758 137.228 126.808 136.559 127.352Z" fill="white"/>
<path d="M97.4298 79.4265C103.511 79.4265 108.441 74.4965 108.441 68.4151C108.441 62.3337 103.511 57.4038 97.4298 57.4038C91.3484 57.4038 86.4185 62.3337 86.4185 68.4151C86.4185 74.4965 91.3484 79.4265 97.4298 79.4265Z" fill="#F2F2F2"/>
<path d="M63.479 30.457H139.344V34.6077H73.1638C69.2727 34.6077 65.4197 35.3741 61.8247 36.8632C58.2298 38.3522 54.9633 40.5348 52.2118 43.2863C49.4604 46.0377 47.2778 49.3042 45.7887 52.8991C44.2996 56.4941 43.5332 60.3471 43.5332 64.2382V111.395H35.2319C34.865 111.395 34.5131 111.249 34.2536 110.989C33.9942 110.73 33.8484 110.378 33.8484 110.011V60.0876C33.8484 56.1964 34.6148 52.3434 36.1039 48.7484C37.593 45.1535 39.7755 41.887 42.527 39.1356C45.2785 36.3841 48.5449 34.2016 52.1399 32.7125C55.7348 31.2234 59.5879 30.457 63.479 30.457Z" fill="#F2F2F2"/>
<path d="M78.0713 174.266V111.217H96.5419V174.266C96.5414 174.69 96.3729 175.096 96.0732 175.395C95.7736 175.695 95.3673 175.864 94.9435 175.864H79.6697C79.2459 175.864 78.8396 175.695 78.54 175.395C78.2403 175.096 78.0718 174.69 78.0713 174.266Z" fill="#3F3D56"/>
<path d="M29.9412 109.974V58.7058C29.9504 50.5443 33.1966 42.7196 38.9677 36.9485C44.7388 31.1774 52.5635 27.9311 60.725 27.9219H138.989V111.75H31.7172C31.2463 111.749 30.7949 111.562 30.4619 111.229C30.129 110.896 29.9417 110.445 29.9412 109.974ZM138.278 28.6323H60.725C52.7518 28.6413 45.1077 31.8127 39.4698 37.4506C33.8319 43.0885 30.6606 50.7326 30.6516 58.7058V109.974C30.6519 110.257 30.7642 110.527 30.964 110.727C31.1638 110.927 31.4347 111.039 31.7172 111.04H138.278V28.6323Z" fill="#3F3D56"/>
<path d="M105.632 67.7341C105.63 69.4293 104.956 71.0544 103.757 72.2531C102.559 73.4517 100.933 74.1259 99.2383 74.1278H53.417C53.1345 74.1281 52.8636 74.2405 52.6638 74.4403C52.464 74.6401 52.3517 74.9109 52.3514 75.1934V100.058C52.3508 100.529 52.1635 100.98 51.8306 101.313C51.4976 101.646 51.0462 101.833 50.5753 101.834H33.8808C33.4099 101.833 32.9585 101.646 32.6255 101.313C32.2926 100.98 32.1053 100.529 32.1047 100.058V63.1165C32.1053 62.6456 32.2926 62.1942 32.6255 61.8613C32.9585 61.5283 33.4099 61.341 33.8808 61.3405L99.2383 61.3405C100.933 61.3424 102.559 62.0166 103.757 63.2152C104.956 64.4139 105.63 66.039 105.632 67.7341Z" fill="#6750A4"/>
<path d="M141.83 27.2112C147.189 27.2 152.332 29.3179 156.129 33.099C159.926 36.8801 162.066 42.0146 162.077 47.3731V105.737H201.86C203.458 105.733 204.992 106.365 206.124 107.493C207.257 108.62 207.895 110.152 207.898 111.75H121.583V47.3731C121.595 42.0146 123.734 36.8801 127.531 33.099C131.328 29.3179 136.472 27.2 141.83 27.2112Z" fill="#3F3D56"/>
<path d="M174.035 34.7409L193.4 36.8856L200.267 37.646C200.57 37.6796 200.877 37.6531 201.17 37.5681C201.463 37.4831 201.736 37.3412 201.974 37.1506C202.213 36.9599 202.411 36.7242 202.558 36.457C202.705 36.1897 202.798 35.8961 202.831 35.5929C202.865 35.2897 202.839 34.9829 202.754 34.6899C202.669 34.3969 202.527 34.1236 202.336 33.8854C202.145 33.6473 201.91 33.449 201.642 33.302C201.375 33.1549 201.082 33.062 200.778 33.0284L192.237 32.0824L174.548 30.121C173.935 30.0533 173.321 30.2316 172.84 30.6168C172.359 31.0019 172.051 31.5622 171.983 32.1747C171.915 32.7871 172.093 33.4014 172.478 33.8827C172.862 34.3639 173.423 34.6726 174.035 34.7409Z" fill="white"/>
<path d="M170.388 50.9025C170.572 51.2084 170.825 51.4676 171.125 51.6601C171.426 51.8527 171.767 51.9733 172.122 52.0127L181.335 53.0331L197.745 54.851L197.748 54.8502L198.273 54.9086L200.92 52.8413C200.936 52.6842 200.937 52.5259 200.92 52.3689C200.865 51.8415 200.631 51.349 200.257 50.9728C199.883 50.5967 199.392 50.3594 198.865 50.3002L196.586 50.0469L187.543 49.0463L181.037 48.3247L172.633 47.3933C172.202 47.3456 171.767 47.4193 171.376 47.6062C170.985 47.793 170.654 48.0855 170.42 48.4505C170.187 48.8156 170.06 49.2387 170.054 49.672C170.049 50.1053 170.164 50.5315 170.388 50.9025Z" fill="white"/>
<path d="M183.329 24.27L188.147 24.8036L190.276 25.04L193.49 25.3957C194.103 25.4635 194.717 25.2851 195.198 24.8999C195.679 24.5146 195.988 23.9541 196.055 23.3415C196.123 22.7289 195.945 22.1145 195.56 21.6335C195.174 21.1524 194.614 20.8441 194.001 20.7763L183.843 19.6519C183.23 19.5839 182.616 19.7618 182.135 20.1467C181.654 20.5316 181.345 21.0919 181.277 21.7043C181.209 22.3167 181.387 22.9311 181.772 23.4122C182.157 23.8934 182.717 24.2019 183.329 24.27Z" fill="white"/>
<path d="M178.41 66.8404L181.519 67.4321C181.701 67.4665 181.888 67.4617 182.068 67.4182C182.248 67.3746 182.417 67.2932 182.563 67.1793L185.057 65.2312L178.41 66.8404Z" fill="white"/>
<path d="M162.57 43.4251C162.715 44.0237 163.092 44.5401 163.618 44.861C164.144 45.1818 164.776 45.2809 165.374 45.1365L175.31 42.7314C175.908 42.5857 176.424 42.2086 176.745 41.6828C177.066 41.1571 177.165 40.5256 177.021 39.9268C176.944 39.605 176.798 39.3038 176.593 39.0437C176.318 38.6921 175.948 38.427 175.526 38.2801C175.105 38.1333 174.65 38.1108 174.216 38.2154L164.281 40.6205C163.682 40.7656 163.166 41.1425 162.845 41.6684C162.524 42.1944 162.425 42.8263 162.57 43.4251Z" fill="white"/>
<path d="M97.4298 70.1909C98.803 70.1909 99.9162 69.0777 99.9162 67.7044C99.9162 66.3312 98.803 65.218 97.4298 65.218C96.0566 65.218 94.9434 66.3312 94.9434 67.7044C94.9434 69.0777 96.0566 70.1909 97.4298 70.1909Z" fill="white"/>
</g>
<defs>
<clipPath id="clip0_731_2519">
<rect width="204.775" height="175.293" fill="white" transform="translate(25.2251 0.571045)"/>
</clipPath>
</defs>
</svg>
