<svg width="222" height="222" viewBox="0 0 222 222" fill="none" xmlns="http://www.w3.org/2000/svg">
<g clip-path="url(#clip0_534_2414)">
<path d="M222 111C222 118.41 221.274 125.653 219.886 132.655C219.455 134.851 218.954 137.023 218.392 139.171C217.283 143.426 215.922 147.579 214.333 151.618C214.117 152.173 213.894 152.724 213.665 153.276C213.099 154.65 212.507 156.01 211.887 157.353C211.558 158.072 211.219 158.788 210.869 159.501C209.564 162.19 208.149 164.821 206.631 167.384C204.908 170.303 203.055 173.139 201.074 175.877C197.532 180.79 193.596 185.401 189.313 189.659C169.241 209.65 141.563 222 111 222C80.2969 222 52.5023 209.533 32.4093 189.385C28.2673 185.233 24.4508 180.755 21.0078 175.99C17.0371 170.505 13.5564 164.64 10.6307 158.459C10.1476 157.445 9.68167 156.421 9.23286 155.39C9.17464 155.263 9.12324 155.14 9.06842 155.013C8.3798 153.427 7.73234 151.82 7.11909 150.196C6.57091 148.743 6.05016 147.274 5.5637 145.79C4.84427 143.611 4.1899 141.405 3.60751 139.168C3.13474 137.366 2.7065 135.543 2.32622 133.707C0.94213 127.057 0.15415 120.192 0.0240055 113.165C0.0068587 112.446 0 111.723 0 111C0 107.756 0.140432 104.546 0.411094 101.373C0.50703 100.27 0.616684 99.1703 0.743398 98.0774C2.14463 85.9907 5.48834 74.4968 10.4525 63.9141C11.7304 61.1905 13.1145 58.5285 14.6013 55.9317C20.1033 46.3219 26.9997 37.6132 35.0164 30.0865C36.1367 29.0313 37.2775 28.0035 38.4423 26.9997C57.8981 10.175 83.2603 0 111 0C172.303 0 222 49.6965 222 111Z" fill="#F2F2F2"/>
<path d="M167.699 79.8403H163.55V109.298H167.699V79.8403Z" fill="#3F3D56"/>
<path d="M167.709 79.4678L167.559 79.8412L166.147 83.3117L163.55 82.2565L159.816 80.7422C136.639 73.303 107.348 69.4963 96.1897 54.9176L95.4634 54.623C90.7943 58.4971 87.552 58.7237 87.2994 51.3067L86.5731 51.0121C67.5301 54.9275 51.0618 43.747 35.0164 30.0865C36.1366 29.0313 37.2775 28.0035 38.4423 26.9998C61.0003 27.6322 80.2369 31.5461 87.7722 47.0209L88.502 47.3189L97.2688 50.875L98.002 51.1731C117.476 47.0665 139.354 61.869 161.255 76.847L167.709 79.4678Z" fill="#3F3D56"/>
<path d="M201.074 175.877C197.532 180.789 193.596 185.401 189.313 189.659C139.963 190.622 80.4921 190.502 32.4093 189.385C28.2673 185.233 24.4508 180.755 21.0078 175.99C30.9944 175.712 41.601 175.493 52.6017 175.322C56.956 175.25 61.3755 175.192 65.8429 175.137C70.2795 175.089 74.764 175.044 79.2828 175.007H79.2862C120.346 174.674 164.266 174.979 201.074 175.877Z" fill="#D0CDE1"/>
<path d="M218.392 139.171C217.282 143.426 215.922 147.579 214.333 151.618C214.117 152.173 213.894 152.724 213.665 153.276H208.358V139.171H218.392Z" fill="#3F3D56"/>
<path d="M214.333 151.618C214.117 152.173 213.894 152.724 213.665 153.276C213.099 154.65 212.507 156.01 211.887 157.353C211.558 158.072 211.219 158.788 210.869 159.501C209.564 162.19 208.149 164.821 206.631 167.384C153.605 173.562 104.531 175.043 63.1467 167.384V151.618H214.333Z" fill="#3F3D56"/>
<path d="M211.887 132.871V157.353C211.558 158.072 211.219 158.788 210.869 159.501C195.809 152.148 182.041 153.025 169.152 159.501V105.772C179.586 99.534 190.2 98.5073 201.099 105.772L211.113 130.922L211.887 132.871Z" fill="#D0CDE1"/>
<path d="M175.79 109.091H194.045V127.346C188.026 130.561 181.939 130.493 175.79 127.346C172.618 121.261 172.618 115.176 175.79 109.091Z" fill="white"/>
<path d="M207.736 127.553C205.337 130.254 200.938 129.288 196.119 127.553V109.298H201.098L207.736 127.553Z" fill="white"/>
<path d="M180.768 137.718H176.619V145.601H180.768V137.718Z" fill="#3F3D56"/>
<path d="M199.646 120.915H199.853C202.03 120.915 203.795 122.68 203.795 124.857C203.795 127.033 202.03 128.798 199.853 128.798H199.646V120.915Z" fill="#3F3D56"/>
<path d="M45.3049 151.617H45.5124C47.6892 151.617 49.4539 153.382 49.4539 155.559C49.4539 157.736 47.6892 159.5 45.5124 159.5H45.3049V151.617Z" fill="#3F3D56"/>
<path d="M219.886 132.655C219.455 134.851 218.954 137.023 218.392 139.171C217.282 143.426 215.922 147.579 214.333 151.618C214.117 152.173 213.894 152.724 213.665 153.276C213.099 154.65 212.507 156.01 211.887 157.353C211.558 158.072 211.219 158.788 210.869 159.501H208.981L208.759 153.276L208.7 151.618L208.358 141.96L207.943 130.298L211.112 130.922L219.886 132.655Z" fill="#D0CDE1"/>
<path d="M65.8422 182.527C74.5495 182.527 81.6082 175.468 81.6082 166.761C81.6082 158.054 74.5495 150.995 65.8422 150.995C57.1349 150.995 50.0762 158.054 50.0762 166.761C50.0762 175.468 57.1349 182.527 65.8422 182.527Z" fill="#3F3D56"/>
<path d="M65.8423 175.059C70.4252 175.059 74.1403 171.344 74.1403 166.761C74.1403 162.178 70.4252 158.463 65.8423 158.463C61.2595 158.463 57.5444 162.178 57.5444 166.761C57.5444 171.344 61.2595 175.059 65.8423 175.059Z" fill="#D0CDE1"/>
<path d="M170.396 149.75L170.396 98.3032H161.683C159.954 101.561 159.077 106.516 158.764 112.597C157.696 133.38 140.68 149.75 119.87 149.75H45.0974V153.484H160.942C161.187 156.04 161.437 158.604 161.683 161.16L170.396 161.16V153.484L170.396 149.75Z" fill="#3F3D56"/>
<path d="M103.023 132.527L105.363 130.808L119.738 150.369L117.397 152.088C106.602 150.756 101.86 144.192 103.023 132.527Z" fill="#3F3D56"/>
<path d="M126.976 66.3882L129.63 67.5684L100.923 152.1L98.269 150.92C101.827 127.756 112.758 85.375 126.976 66.3882Z" fill="#3F3D56"/>
<path d="M202.135 128.383H197.986V130.043H202.135V128.383Z" fill="#3F3D56"/>
<path d="M164.872 104.02C164.874 103.989 164.875 103.961 164.87 103.932C164.845 103.702 164.641 103.54 164.413 103.565L161.739 103.866L67.8032 107.262L66.9723 107.353C66.7913 107.373 66.6449 107.511 66.6123 107.693C66.5719 107.919 66.7213 108.133 66.9473 108.174L162.864 120.13C163.093 120.153 163.294 119.984 163.317 119.755L164.872 104.02ZM69.9025 107.861L161.587 104.716L163.994 104.447L162.534 119.228L69.9025 107.861Z" fill="#3F3D56"/>
<path d="M97.2689 50.8749L95.4634 54.6229L70.9955 105.347L87.2995 51.3066L88.502 47.3188L87.7722 47.0208L86.5731 51.0119L69.7518 107.142L69.5737 107.958C69.5326 108.136 69.6148 108.317 69.7792 108.406C69.978 108.52 70.2315 108.448 70.3411 108.245L96.1897 54.9175L98.0021 51.173L97.2689 50.8749Z" fill="#3F3D56"/>
<path d="M17.3969 108.304L16.1944 96.9536L15.8655 93.8257L14.1662 77.765L13.135 68.0045C13.1145 67.7956 12.9363 67.6345 12.7239 67.6345C12.5115 67.6345 12.3333 67.7921 12.3093 68.0011L11.189 77.765L9.13349 95.7168L8.75326 99.0366L7.65355 108.629L6.12213 122.001C6.1187 122.014 6.1187 122.028 6.1187 122.045C6.11527 122.271 6.30028 122.46 6.52983 122.463L11.518 122.511L18.4418 122.576H18.4452C18.4589 122.576 18.4726 122.573 18.4863 122.573C18.7158 122.549 18.8803 122.343 18.8563 122.117L17.3969 108.304ZM13.2926 121.696L11.309 121.679L6.99914 121.637L8.24622 110.75V110.746L9.61659 98.7968L9.99682 95.4736L12.0284 77.765L12.7068 71.8381L13.3337 77.765L15.0569 94.0518L15.3858 97.1797L16.5849 108.53L17.9827 121.74L13.2926 121.696Z" fill="#3F3D56"/>
<path d="M78.81 124.693L76.5763 125.913L70.1938 127.698L64.8425 129.199L53.2218 132.45L47.8705 133.947C31.2381 131.219 22.8395 136.962 14.8993 143.176L9.54805 144.673L5.5637 145.79C4.84426 143.611 4.1899 141.405 3.60751 139.168C3.13473 137.366 2.70649 135.543 2.32622 133.707C0.94213 127.057 0.15415 120.192 0.0240055 113.165C0.0068587 112.446 0 111.723 0 111C0 107.756 0.140432 104.546 0.411094 101.373C0.50703 100.27 0.616684 99.1703 0.743398 98.0775L9.13349 95.717L9.99683 95.4738L15.0569 94.052L15.8655 93.8259L28.7093 90.2116C38.5837 89.5141 46.1059 93.8025 52.5126 100.455C52.5126 100.455 61.6324 97.7314 68.3438 102.538C70.4678 104.063 72.3487 106.341 73.6232 109.702L74.7229 112.871L78.81 124.693Z" fill="#6750A4"/>
<path d="M58.75 141.448C65.1768 141.448 70.3867 136.239 70.3867 129.812C70.3867 123.385 65.1768 118.175 58.75 118.175C52.3232 118.175 47.1133 123.385 47.1133 129.812C47.1133 136.239 52.3232 141.448 58.75 141.448Z" fill="#3F3D56"/>
<path d="M58.7498 135.936C62.1323 135.936 64.8744 133.194 64.8744 129.812C64.8744 126.429 62.1323 123.687 58.7498 123.687C55.3673 123.687 52.6252 126.429 52.6252 129.812C52.6252 133.194 55.3673 135.936 58.7498 135.936Z" fill="#D0CDE1"/>
<path d="M15.0912 145.29C15.0912 149.141 13.2206 152.553 10.3359 154.67C9.98311 154.931 9.61312 155.171 9.23281 155.39C9.17459 155.263 9.1232 155.14 9.06837 155.013C8.37976 153.427 7.73229 151.82 7.11904 150.196C6.57086 148.744 6.05011 147.274 5.56365 145.79C4.84422 143.612 4.18986 141.405 3.60746 139.168C3.13469 137.366 2.70645 135.543 2.32617 133.707C2.69616 133.669 3.073 133.652 3.45332 133.652C9.15745 133.652 13.9058 137.757 14.8993 143.176C15.0261 143.862 15.0912 144.567 15.0912 145.29Z" fill="#3F3D56"/>
<path d="M9.57903 145.29C9.57903 147.298 8.61294 149.079 7.11924 150.196C6.57106 148.743 6.05031 147.274 5.56386 145.79C4.84442 143.611 4.19006 141.405 3.60767 139.168C6.71496 139.243 9.2433 141.628 9.54821 144.673C9.56875 144.876 9.57903 145.081 9.57903 145.29Z" fill="#D0CDE1"/>
<path d="M44.2845 100.779L8.27804 110.857L5.24438 100.018C9.778 96.4776 18.698 94.902 28.2077 93.5906L44.2845 100.779Z" fill="white"/>
<path d="M3.86788 112.089L0.0240055 113.165C0.0068587 112.446 0 111.723 0 111C0 107.756 0.140432 104.545 0.411094 101.373L0.835905 101.253C4.59104 103.717 5.54031 107.355 3.86788 112.089Z" fill="white"/>
<path d="M12.3776 118.426L10.5405 118.94L11.5175 122.43L13.3546 121.916L12.3776 118.426Z" fill="#3F3D56"/>
<path d="M74.7213 112.871C71.5615 114.136 67.9747 112.599 66.7101 109.44C65.7438 107.025 66.397 104.264 68.3427 102.539C70.4668 104.062 72.3504 106.34 73.6241 109.702L74.7213 112.871Z" fill="#3F3D56"/>
<path d="M10.4524 63.914C11.7303 61.1904 13.1143 58.5285 14.6012 55.9316V77.7651H10.4524V63.914Z" fill="#3F3D56"/>
<path d="M165.624 86.4786C168.832 86.4786 171.433 83.8781 171.433 80.6701C171.433 77.4621 168.832 74.8616 165.624 74.8616C162.416 74.8616 159.816 77.4621 159.816 80.6701C159.816 83.8781 162.416 86.4786 165.624 86.4786Z" fill="#3F3D56"/>
</g>
<defs>
<clipPath id="clip0_534_2414">
<rect width="222" height="222" fill="white"/>
</clipPath>
</defs>
</svg>
