<svg width="25" height="24" viewBox="0 0 25 24" fill="none" xmlns="http://www.w3.org/2000/svg">
<path d="M20.903 11.5767L11.8873 20.5923C11.606 20.8736 11.2245 21.0316 10.8267 21.0316C10.4289 21.0316 10.0473 20.8736 9.76602 20.5923L1.81068 12.6369C1.67139 12.4976 1.5609 12.3323 1.48552 12.1503C1.41014 11.9683 1.37134 11.7733 1.37134 11.5763C1.37134 11.3793 1.41014 11.1842 1.48552 11.0022C1.5609 10.8203 1.67139 10.6549 1.81068 10.5156L10.8263 1.5L20.903 11.5767Z" stroke="#292929" stroke-width="2" stroke-linecap="round" stroke-linejoin="round"/>
<path d="M11.625 12.7505C12.6605 12.7505 13.5 11.911 13.5 10.8755C13.5 9.83995 12.6605 9.00049 11.625 9.00049C10.5895 9.00049 9.75 9.83995 9.75 10.8755C9.75 11.911 10.5895 12.7505 11.625 12.7505Z" stroke="#292929" stroke-width="2" stroke-linecap="round" stroke-linejoin="round"/>
<path d="M19.5 19.125C19.5 17.2505 21.375 15.375 21.375 15.375C21.375 15.375 23.25 17.2505 23.25 19.125C23.25 19.6223 23.0525 20.0992 22.7008 20.4508C22.3492 20.8025 21.8723 21 21.375 21C20.8777 21 20.4008 20.8025 20.0492 20.4508C19.6975 20.0992 19.5 19.6223 19.5 19.125V19.125Z" stroke="#292929" stroke-width="2" stroke-linecap="round" stroke-linejoin="round"/>
<path d="M10.2991 9.54968L3.54907 2.79968" stroke="#292929" stroke-width="2" stroke-linecap="round" stroke-linejoin="round"/>
</svg>
