<svg width="33" height="10" viewBox="0 0 33 10" fill="none" xmlns="http://www.w3.org/2000/svg">
<path d="M23.7207 0.409614C22.9623 0.133289 22.1607 -0.00537249 21.3537 0.000159206C18.7436 0.000159206 16.9002 1.31498 16.8872 3.20239C16.8709 4.58899 18.1971 5.37038 19.2003 5.83367C20.2297 6.31001 20.5739 6.61017 20.5706 7.03594C20.5641 7.68356 19.7485 7.97719 18.9899 7.97719C17.9475 7.97719 17.3782 7.83201 16.5022 7.46823L16.1776 7.31652L15.8073 9.4894C16.4418 9.75367 17.5854 9.98042 18.7664 10C21.5413 10 23.3553 8.69333 23.3765 6.68521C23.3993 5.57756 22.6815 4.7407 21.171 4.04903C20.2525 3.60043 19.6832 3.30027 19.6832 2.84514C19.6832 2.44221 20.171 2.01155 21.1905 2.01155C21.8691 1.99513 22.5434 2.12244 23.1693 2.38511L23.414 2.49441L23.7843 0.394932L23.7207 0.409614ZM30.4938 0.176339H28.4547C27.8201 0.176339 27.3421 0.350887 27.0648 0.980568L23.1432 9.8646H25.918L26.4727 8.40786L29.8592 8.41112C29.9392 8.75206 30.1839 9.8646 30.1839 9.8646H32.6308L30.4938 0.176339ZM13.1336 0.0947737H15.7779L14.1238 9.78793H11.4827L13.1336 0.0915114V0.0947737ZM6.42078 5.43727L6.69484 6.78309L9.27881 0.176339H12.0797L7.91831 9.85155H5.1239L2.84009 1.65919C2.8031 1.5241 2.71623 1.40808 2.59702 1.33456C1.77387 0.909341 0.901691 0.586655 0 0.373724L0.0358884 0.169813H4.29194C4.86942 0.192651 5.33434 0.373725 5.48931 0.990355L6.41915 5.44216L6.42078 5.43727ZM27.2312 6.42583L28.285 3.71462C28.272 3.74398 28.502 3.15508 28.6358 2.79131L28.8168 3.62816L29.4286 6.4242H27.2296L27.2312 6.42583Z" fill="#333333"/>
</svg>
